<?xml version="1.0" standalone="no"?>
<!DOCTYPE svg PUBLIC "-//W3C//DTD SVG 20010904//EN"
 "http://www.w3.org/TR/2001/REC-SVG-20010904/DTD/svg10.dtd">
<svg version="1.0" xmlns="http://www.w3.org/2000/svg"
 width="344.000000pt" height="231.000000pt" viewBox="0 0 344.000000 231.000000"
 preserveAspectRatio="xMidYMid meet">

<g transform="translate(0.000000,231.000000) scale(0.100000,-0.100000)"
fill="#000000" stroke="none">
<path d="M1768 2035 c-2 -2 -19 -6 -38 -9 -42 -5 -136 -33 -170 -51 -14 -7
-51 -25 -83 -40 -95 -46 -307 -219 -307 -251 0 -7 -8 -21 -18 -31 -63 -65 -58
-66 53 -10 61 30 127 60 148 67 20 6 37 16 37 21 0 6 5 7 10 4 6 -4 16 -2 23
3 11 8 50 21 87 29 8 1 45 9 81 16 54 12 240 16 259 6 3 -1 10 -3 15 -4 13 -2
42 -14 82 -31 17 -8 38 -14 47 -14 9 0 16 -4 16 -10 0 -5 3 -10 8 -10 4 0 7
15 7 33 0 25 -4 31 -18 29 -9 -2 -17 2 -17 9 0 6 -8 9 -19 6 -16 -4 -31 9 -31
28 0 4 69 -21 76 -28 4 -4 16 -7 26 -7 10 0 18 -4 18 -9 0 -5 9 -11 20 -14 30
-8 25 -28 -5 -23 -23 4 -25 2 -19 -17 7 -21 31 -46 47 -47 4 0 7 14 7 30 0 21
5 30 16 30 10 0 14 -6 11 -14 -4 -9 -1 -13 6 -11 54 16 67 15 67 -5 0 -11 6
-20 13 -20 14 0 48 -36 41 -43 -3 -3 12 -22 32 -43 21 -21 40 -32 42 -26 2 7
8 12 14 12 6 0 5 -6 -3 -16 -10 -13 -8 -19 14 -40 16 -15 24 -31 21 -42 -5
-14 -3 -14 12 3 15 18 16 18 10 2 -4 -13 0 -20 13 -24 17 -4 18 -9 9 -29 -12
-27 -2 -47 12 -24 5 8 12 12 15 8 4 -3 0 -16 -7 -27 -10 -16 -10 -26 -2 -39
22 -34 74 -23 60 13 -5 14 -9 15 -21 5 -8 -6 -20 -10 -27 -7 -8 4 -7 6 4 6 9
1 24 11 32 23 l16 22 0 -21 c0 -12 5 -25 10 -28 34 -21 -15 94 -78 185 -66 95
-189 206 -285 255 -21 11 -33 21 -27 23 17 6 140 -72 202 -127 57 -52 132
-148 179 -230 14 -25 31 -47 37 -47 7 -1 17 -2 22 -3 6 0 10 -9 10 -18 0 -15
-1 -15 -13 2 -21 27 -30 2 -12 -31 17 -33 20 -80 6 -89 -5 -3 -8 -27 -6 -53
l4 -47 -11 38 c-8 30 -15 37 -34 37 -30 0 -31 11 -3 28 26 17 18 26 -27 29
-32 2 -34 0 -22 -14 7 -9 12 -24 10 -35 -2 -10 1 -18 6 -18 6 0 9 -18 8 -41
-1 -22 2 -43 6 -45 5 -3 6 -15 3 -25 -6 -18 -4 -19 14 -10 59 30 56 32 58 -22
3 -54 -7 -70 -48 -80 -26 -7 -46 -34 -33 -46 4 -3 9 0 11 6 3 8 14 11 29 7 15
-4 24 -2 24 5 0 6 6 11 14 11 8 0 17 10 20 23 3 12 3 -4 0 -36 -8 -101 -83
-282 -123 -295 -10 -3 -8 4 6 24 28 41 57 104 50 111 -4 3 -12 -6 -18 -21 -9
-19 -20 -26 -41 -26 -15 0 -28 4 -28 9 0 6 12 9 27 8 22 -2 29 3 31 20 4 25
32 54 32 33 0 -32 30 16 41 66 14 61 8 75 -20 50 -12 -11 -20 -13 -23 -6 -2 6
-11 8 -21 4 -17 -6 -17 -8 -1 -25 10 -11 12 -19 6 -19 -7 0 -12 5 -12 10 0 6
-4 10 -10 10 -16 0 -11 -38 6 -48 22 -12 7 -35 -18 -29 -19 5 -19 5 -2 -14 16
-18 16 -19 -7 -19 -29 0 -49 -17 -49 -42 0 -10 -4 -18 -10 -18 -13 0 -13 23 1
37 8 8 8 13 0 17 -7 5 -8 13 -2 24 5 9 10 22 12 27 2 6 9 9 16 7 7 -2 13 3 13
10 0 9 3 9 10 -2 5 -8 12 -11 17 -7 11 11 -17 27 -48 27 -27 0 -54 -21 -42
-33 3 -4 1 -7 -5 -7 -6 0 -19 -17 -29 -37 -9 -21 -26 -47 -36 -58 -10 -11 -16
-28 -13 -37 3 -13 -3 -20 -19 -24 -12 -3 -28 -16 -35 -30 -8 -13 -18 -24 -25
-24 -6 0 -22 -13 -35 -30 -14 -16 -31 -29 -38 -30 -7 0 -15 -7 -18 -15 -4 -8
-11 -15 -16 -15 -17 0 -69 -41 -63 -50 3 -4 -5 -5 -17 -2 -21 5 -21 4 5 -20
39 -36 35 -55 -10 -49 -7 1 -13 -3 -13 -9 0 -5 -7 -10 -15 -10 -21 0 -19 26 3
35 16 6 16 7 -2 20 -19 14 -41 11 -31 -5 3 -4 -4 -6 -15 -3 -26 7 -25 -5 2
-34 12 -13 16 -24 10 -24 -26 -3 -31 -4 -38 -12 -14 -13 -32 -7 -37 14 -4 16
-3 18 9 8 11 -9 14 -8 14 9 0 23 -15 38 -24 23 -6 -9 -64 -22 -121 -26 -49 -4
-120 -7 -125 -5 -3 1 -22 4 -43 5 -26 3 -35 0 -31 -7 4 -6 -3 -4 -17 5 -29 21
-37 21 -41 3 -2 -11 -11 -11 -50 2 -45 14 -64 32 -35 32 6 0 -1 7 -18 14 -123
58 -164 75 -192 81 -17 3 -34 13 -37 21 -3 8 -11 14 -18 14 -7 0 -19 9 -26 20
-23 37 -33 21 -12 -20 22 -44 25 -54 10 -45 -19 12 -10 -10 25 -62 19 -28 56
-66 82 -84 204 -138 300 -191 337 -185 11 2 15 1 8 -1 -7 -3 -9 -9 -5 -15 4
-8 0 -9 -11 -5 -42 16 -69 20 -62 8 9 -15 3 -14 -39 3 -50 21 -43 9 8 -14 44
-20 85 -28 58 -11 -20 13 84 4 154 -13 68 -17 171 -20 229 -6 23 5 47 5 56 0
10 -5 29 -5 46 0 16 4 22 9 14 9 -31 2 9 20 90 40 112 28 261 102 296 148 15
19 46 48 70 63 93 59 173 185 234 370 41 123 47 155 31 165 -11 6 -10 45 1 45
4 0 8 -10 9 -22 1 -15 4 -10 11 15 9 32 7 41 -7 57 -11 12 -13 20 -7 20 7 0
12 11 12 25 0 18 -5 25 -19 25 -22 0 -36 26 -18 33 7 2 20 -2 30 -11 15 -14
17 -13 17 6 0 11 -10 28 -22 36 -18 13 -19 16 -5 16 9 0 17 4 17 9 0 20 -13
41 -25 41 -7 0 -18 7 -25 15 -8 9 -9 15 -2 15 6 0 14 -4 17 -10 3 -5 11 -10
16 -10 6 0 2 13 -7 30 -10 16 -20 27 -23 24 -3 -3 -10 12 -16 33 -10 33 -9 39
7 43 13 4 15 9 8 20 -8 12 -11 13 -19 1 -12 -19 -26 5 -23 40 2 20 -3 28 -19
32 -12 3 -19 11 -16 19 2 7 -3 21 -11 31 -14 16 -14 19 -2 27 10 7 11 10 3 10
-7 0 -12 3 -12 8 4 18 -24 72 -38 72 -8 0 -12 4 -9 8 2 4 -22 36 -54 71 -48
51 -63 62 -82 57 -13 -3 -17 -3 -10 0 19 9 14 23 -10 35 -47 21 -93 48 -83 49
19 1 -20 20 -41 20 -12 0 -24 6 -27 14 -3 9 -15 12 -31 9 -19 -4 -26 -1 -26
11 0 20 -65 48 -96 40 -13 -3 -24 -2 -24 2 0 20 -90 38 -201 40 -64 2 -119 1
-121 -1z m302 -75 c0 -5 -5 -10 -11 -10 -5 0 -7 5 -4 10 3 6 8 10 11 10 2 0 4
-4 4 -10z m-296 -52 c-9 -14 -23 2 -17 18 4 12 8 13 14 3 4 -7 5 -17 3 -21z
m56 2 c0 -5 -4 -10 -10 -10 -5 0 -10 5 -10 10 0 6 5 10 10 10 6 0 10 -4 10
-10z m50 0 c0 -5 -4 -10 -9 -10 -6 0 -13 5 -16 10 -3 6 1 10 9 10 9 0 16 -4
16 -10z m-160 -10 c0 -5 -2 -10 -4 -10 -3 0 -8 5 -11 10 -3 6 -1 10 4 10 6 0
11 -4 11 -10z m256 -2 c32 -6 68 -18 79 -26 14 -10 15 -13 4 -9 -9 3 -48 13
-85 22 -104 26 -103 34 2 13z m259 -8 c3 -6 -1 -7 -9 -4 -18 7 -21 14 -7 14 6
0 13 -4 16 -10z m-615 -4 c0 -11 -19 -15 -25 -6 -3 5 1 10 9 10 9 0 16 -2 16
-4z m670 -20 c0 -11 -19 -15 -25 -6 -3 5 1 10 9 10 9 0 16 -2 16 -4z m100 -10
c0 -3 -4 -8 -10 -11 -5 -3 -10 -1 -10 4 0 6 5 11 10 11 6 0 10 -2 10 -4z
m-616 -15 c3 -5 0 -14 -7 -19 -10 -8 -13 -6 -14 9 -2 19 11 26 21 10z m51 -1
c3 -5 -1 -10 -9 -10 -8 0 -18 5 -21 10 -3 6 1 10 9 10 8 0 18 -4 21 -10z m48
-7 c-6 -15 -19 -17 -27 -4 -7 11 0 18 18 18 8 0 12 -6 9 -14z m-158 -9 c-10
-8 -24 -14 -31 -14 -6 0 -17 6 -23 14 -9 11 -4 13 31 13 37 0 40 -1 23 -13z
m205 -4 c0 -5 -4 -10 -10 -10 -5 0 -10 5 -10 10 0 6 5 10 10 10 6 0 10 -4 10
-10z m-408 -18 c15 -6 13 -9 -13 -21 -16 -7 -33 -10 -37 -6 -4 4 -1 10 6 12 6
3 10 9 6 14 -6 10 13 11 38 1z m873 -2 c3 -5 -1 -10 -9 -10 -9 0 -16 5 -16 10
0 6 4 10 9 10 6 0 13 -4 16 -10z m-955 -10 c0 -5 -2 -10 -4 -10 -3 0 -8 5 -11
10 -3 6 -1 10 4 10 6 0 11 -4 11 -10z m995 -30 c3 -5 2 -10 -4 -10 -5 0 -13 5
-16 10 -3 6 -2 10 4 10 5 0 13 -4 16 -10z m-1094 -23 c-7 -7 -14 -8 -21 -1 -6
6 -2 10 12 11 16 2 18 -1 9 -10z m1219 -119 c0 -17 -17 -7 -28 17 -6 14 -16
25 -22 25 -5 0 -10 7 -10 15 0 9 -7 18 -15 21 -8 4 -15 11 -15 18 1 12 90 -83
90 -96z m48 -35 c-10 -2 -18 -9 -18 -14 0 -6 -4 -7 -10 -4 -19 12 -10 25 18
24 16 -1 20 -3 10 -6z m21 -59 c-16 -20 -29 -17 -29 5 0 14 5 18 20 14 16 -4
18 -8 9 -19z m24 -61 c-7 -17 -33 2 -33 23 0 11 4 12 19 2 10 -6 17 -18 14
-25z m27 -64 c0 -16 4 -29 9 -29 5 0 7 -10 4 -21 -6 -20 -7 -21 -19 -5 -7 10
-10 24 -8 31 3 7 1 16 -5 20 -17 10 -14 45 4 39 9 -4 15 -19 15 -35z m-75 -19
c3 -5 2 -10 -4 -10 -5 0 -13 5 -16 10 -3 6 -2 10 4 10 5 0 13 -4 16 -10z m103
-90 c-1 -19 6 -36 18 -45 19 -13 19 -14 -1 -11 -11 2 -22 11 -23 22 -2 10 -8
23 -13 29 -14 14 -11 35 5 35 10 0 14 -10 14 -30z m-100 -60 c4 0 5 -26 3 -57
l-4 -58 -12 59 c-6 32 -9 70 -6 85 l6 26 3 -27 c2 -16 6 -28 10 -28z m-63 -40
c-3 -5 -10 -10 -16 -10 -5 0 -9 5 -9 10 0 6 7 10 16 10 8 0 12 -4 9 -10z m-92
-419 c10 -1 16 -5 13 -9 -3 -5 -19 -7 -36 -4 -23 3 -30 0 -30 -12 0 -10 9 -16
25 -16 14 0 25 -5 25 -11 0 -7 -9 -9 -22 -5 -13 3 -29 6 -36 6 -7 0 -10 5 -7
11 4 5 -4 19 -16 30 l-24 20 45 -5 c25 -2 53 -5 63 -5z m-83 -36 c0 -7 -7 -15
-15 -19 -8 -3 -15 -12 -15 -21 0 -8 -7 -15 -15 -15 -8 0 -15 -5 -15 -11 0 -6
6 -9 13 -7 6 3 21 -4 32 -14 20 -19 20 -19 -7 -9 -35 13 -68 10 -68 -7 0 -7 3
-11 8 -8 4 2 16 -3 27 -11 19 -14 19 -15 -5 -7 -14 4 -35 7 -47 6 -32 -2 -29
6 14 44 20 18 34 36 30 40 -4 4 -15 0 -25 -9 -37 -34 -33 -16 4 21 38 38 84
52 84 27z m35 -49 c21 8 19 0 -5 -21 -18 -17 -20 -17 -14 -2 4 13 1 17 -15 17
-14 0 -19 5 -15 15 5 13 8 13 20 0 8 -8 21 -12 29 -9z m5 -50 c0 -3 -4 -8 -10
-11 -5 -3 -10 -1 -10 4 0 6 5 11 10 11 6 0 10 -2 10 -4z m-170 -38 c0 -5 6 -8
14 -5 8 3 17 -1 20 -10 4 -8 13 -13 21 -9 8 3 15 1 15 -3 0 -16 -28 -20 -40
-6 -12 15 -55 15 -78 1 -17 -10 -15 -46 4 -53 8 -3 20 -1 27 6 8 8 6 15 -9 26
-10 8 -14 15 -7 15 6 0 15 -4 18 -10 3 -5 15 -10 26 -10 10 0 19 -4 19 -10 0
-5 -8 -10 -17 -10 -9 0 -24 -7 -34 -16 -17 -15 -19 -15 -34 0 -16 16 -29 20
-52 17 -7 -1 -13 5 -13 14 0 17 16 20 25 5 10 -17 25 -11 25 9 0 10 7 21 15
25 8 3 15 11 15 19 0 7 9 13 20 14 11 1 20 -3 20 -9z m-133 -91 c-6 -19 -24
-18 -29 1 -4 15 -1 18 14 14 10 -2 17 -9 15 -15z m51 -35 c-12 -5 -39 19 -33
29 3 4 14 1 23 -9 10 -9 14 -19 10 -20z m-763 18 c3 -5 2 -10 -4 -10 -5 0 -13
5 -16 10 -3 6 -2 10 4 10 5 0 13 -4 16 -10z m700 -20 c3 -5 1 -10 -4 -10 -6 0
-11 5 -11 10 0 6 2 10 4 10 3 0 8 -4 11 -10z m-41 -36 c5 -14 4 -15 -9 -4 -17
14 -19 20 -6 20 5 0 12 -7 15 -16z m-374 -9 c-1 -5 7 -12 17 -16 13 -6 10 -8
-14 -8 -27 -1 -30 2 -26 19 5 20 26 24 23 5z m206 -8 c4 -4 1 -7 -7 -8 -8 0
-28 -2 -46 -5 -25 -3 -31 0 -27 11 6 14 66 16 80 2z m-101 -7 c3 -5 1 -10 -4
-10 -6 0 -11 5 -11 10 0 6 2 10 4 10 3 0 8 -4 11 -10z"/>
<path d="M2155 1677 c4 -15 4 -18 -3 -8 -5 7 -15 10 -21 6 -8 -4 -3 -15 15
-31 14 -14 27 -24 29 -22 1 2 7 12 13 24 12 23 5 37 -21 47 -15 6 -17 3 -12
-16z"/>
<path d="M2225 1670 c3 -5 8 -10 11 -10 2 0 4 5 4 10 0 6 -5 10 -11 10 -5 0
-7 -4 -4 -10z"/>
<path d="M2192 1636 c-10 -23 -7 -29 38 -76 28 -28 50 -56 50 -61 0 -5 4 -9 9
-9 4 0 11 16 14 36 6 38 -9 74 -30 74 -7 0 -13 7 -13 15 0 8 -7 15 -16 15 -9
0 -22 7 -28 16 -11 14 -13 13 -24 -10z"/>
<path d="M2315 1500 c-15 -30 -15 -32 12 -79 2 -2 9 2 18 9 16 13 21 50 6 50
-5 0 -7 8 -4 19 8 32 -15 33 -32 1z"/>
<path d="M2216 1485 c4 -8 11 -15 16 -15 6 0 5 6 -2 15 -7 8 -14 15 -16 15 -2
0 -1 -7 2 -15z"/>
<path d="M2400 1450 c0 -5 5 -10 10 -10 6 0 10 5 10 10 0 6 -4 10 -10 10 -5 0
-10 -4 -10 -10z"/>
<path d="M272 1428 c2 -14 12 -24 28 -28 l25 -6 3 -148 c3 -146 3 -147 25
-144 21 3 22 7 25 151 l3 147 24 0 c20 0 25 5 25 25 0 25 -1 25 -81 25 -77 0
-80 -1 -77 -22z"/>
<path d="M464 1437 c-2 -7 -3 -85 -2 -172 l3 -160 25 0 c24 0 25 3 28 73 3 63
5 72 22 72 27 0 40 -30 40 -94 0 -53 1 -56 25 -56 24 0 25 2 25 63 0 34 -6 74
-14 90 -13 23 -13 31 0 55 22 42 18 89 -11 117 -20 21 -34 25 -80 25 -36 0
-57 -5 -61 -13z m112 -62 c11 -42 -3 -75 -31 -75 -23 0 -25 3 -25 50 0 47 2
50 25 50 18 0 26 -7 31 -25z"/>
<path d="M660 1275 l0 -176 73 3 c64 3 72 5 72 23 0 17 -8 20 -48 23 l-48 3 3
52 3 52 38 3 c28 2 37 8 37 22 0 14 -9 20 -37 22 -38 3 -38 4 -41 50 l-3 47
48 3 c41 3 48 6 51 26 3 21 0 22 -72 22 l-76 0 0 -175z"/>
<path d="M886 1423 c-11 -55 -46 -283 -46 -303 0 -34 36 -25 46 13 8 27 15 32
39 32 25 0 32 -5 40 -32 7 -25 15 -33 32 -33 13 0 23 4 23 9 0 5 -11 81 -25
168 -14 87 -25 161 -25 166 0 4 -18 7 -39 7 -35 0 -40 -3 -45 -27z m58 -150
l7 -63 -27 0 c-26 0 -26 1 -20 48 15 104 19 118 26 97 4 -11 10 -48 14 -82z"/>
<path d="M1052 1278 l3 -173 35 -3 c19 -2 52 1 72 7 31 10 39 18 48 49 13 48
13 186 0 234 -13 47 -34 58 -105 58 l-55 0 2 -172z m106 0 l-3 -123 -25 0 -25
0 -3 123 -3 122 31 0 31 0 -3 -122z"/>
<path d="M2360 1425 c-13 -23 -11 -34 10 -98 14 -40 26 -79 27 -87 1 -8 5 -28
9 -45 3 -16 6 -47 6 -67 0 -29 3 -35 15 -31 10 4 14 1 12 -6 -3 -7 -8 -11 -13
-9 -8 3 -29 -50 -39 -101 -6 -27 -3 -30 23 -36 34 -8 54 1 46 21 -3 7 -1 16 3
19 17 10 18 255 1 255 -4 0 -6 9 -3 20 4 15 0 20 -13 20 -15 0 -16 2 -5 9 19
12 4 33 -18 26 -35 -11 -43 19 -29 109 5 29 -17 30 -32 1z m65 -455 c-3 -5
-11 -10 -16 -10 -6 0 -7 5 -4 10 3 6 11 10 16 10 6 0 7 -4 4 -10z"/>
<path d="M2722 1369 c2 -7 10 -15 17 -17 8 -3 12 1 9 9 -2 7 -10 15 -17 17 -8
3 -12 -1 -9 -9z"/>
<path d="M2516 1127 c-15 -11 -33 -87 -21 -87 2 0 15 4 29 10 31 12 37 45 6
35 -11 -3 -20 -2 -20 3 0 5 9 12 20 15 11 3 20 12 20 21 0 19 -10 20 -34 3z"/>
<path d="M1470 476 c0 -2 7 -6 15 -10 8 -3 15 -1 15 4 0 6 -7 10 -15 10 -8 0
-15 -2 -15 -4z"/>
</g>
</svg>
